G04 Layer_Color=16711935*
%FSLAX24Y24*%
%MOIN*%
G70*
G01*
G75*
%ADD41C,0.0300*%
%ADD61R,0.0600X0.0340*%
%ADD65R,0.0340X0.0600*%
%ADD66R,0.0380X0.0320*%
%ADD67R,0.0320X0.0380*%
%ADD69C,0.0631*%
%ADD70R,0.0631X0.0631*%
%ADD71C,0.1080*%
%ADD72C,0.0780*%
%ADD73C,0.1660*%
%ADD74C,0.0750*%
%ADD75C,0.0749*%
%ADD76C,0.0880*%
%ADD77R,0.0880X0.0880*%
G04:AMPARAMS|DCode=78|XSize=67.1mil|YSize=67.1mil|CornerRadius=18.8mil|HoleSize=0mil|Usage=FLASHONLY|Rotation=0.000|XOffset=0mil|YOffset=0mil|HoleType=Round|Shape=RoundedRectangle|*
%AMROUNDEDRECTD78*
21,1,0.0671,0.0295,0,0,0.0*
21,1,0.0295,0.0671,0,0,0.0*
1,1,0.0375,0.0148,-0.0148*
1,1,0.0375,-0.0148,-0.0148*
1,1,0.0375,-0.0148,0.0148*
1,1,0.0375,0.0148,0.0148*
%
%ADD78ROUNDEDRECTD78*%
%ADD79C,0.0671*%
%ADD80C,0.0820*%
%ADD81P,0.0888X8X22.5*%
%ADD82R,0.0671X0.0671*%
%ADD83R,0.0252X0.0154*%
%ADD84R,0.0409X0.0685*%
%ADD85O,0.0680X0.0300*%
%ADD86R,0.4174X0.1812*%
%ADD87R,0.0749X0.0631*%
%ADD88R,0.0700X0.0640*%
%ADD89R,0.0560X0.0940*%
%ADD90R,0.0360X0.0700*%
%ADD91R,0.0560X0.0640*%
%ADD92R,0.0690X0.0513*%
%ADD93R,0.0356X0.0749*%
D41*
X-9724Y23425D02*
D03*
X-12874D02*
D03*
D61*
X-6890Y-7643D02*
D03*
Y-6923D02*
D03*
X-12717Y-8504D02*
D03*
Y-9224D02*
D03*
X-12008Y-8498D02*
D03*
Y-9218D02*
D03*
X-11299D02*
D03*
Y-8498D02*
D03*
X-6890Y-9218D02*
D03*
Y-8498D02*
D03*
X-7598Y-9218D02*
D03*
Y-8498D02*
D03*
X-10591Y-9218D02*
D03*
Y-8498D02*
D03*
X-6890Y-2919D02*
D03*
Y-2199D02*
D03*
X-12008Y-3774D02*
D03*
Y-4494D02*
D03*
X-11299D02*
D03*
Y-3774D02*
D03*
X-6890Y-4494D02*
D03*
Y-3774D02*
D03*
X-7598Y-4494D02*
D03*
Y-3774D02*
D03*
X-10591Y-4494D02*
D03*
Y-3774D02*
D03*
X-984Y-9218D02*
D03*
Y-8498D02*
D03*
X-5709Y-7317D02*
D03*
Y-8037D02*
D03*
X-984D02*
D03*
Y-7317D02*
D03*
X-5709Y-9218D02*
D03*
Y-8498D02*
D03*
X-1969Y-10754D02*
D03*
Y-10034D02*
D03*
X-5610Y3706D02*
D03*
Y2986D02*
D03*
Y2525D02*
D03*
Y1805D02*
D03*
Y8071D02*
D03*
Y7351D02*
D03*
Y6890D02*
D03*
Y6170D02*
D03*
X-12717Y-3780D02*
D03*
Y-4500D02*
D03*
X-5715Y-10754D02*
D03*
Y-10034D02*
D03*
X-4927Y-10754D02*
D03*
Y-10034D02*
D03*
X-2723Y-10754D02*
D03*
Y-10034D02*
D03*
X-14213Y-9651D02*
D03*
Y-8931D02*
D03*
Y-6895D02*
D03*
Y-6175D02*
D03*
Y-4140D02*
D03*
Y-3420D02*
D03*
Y-1384D02*
D03*
Y-664D02*
D03*
Y1372D02*
D03*
Y2092D02*
D03*
Y4128D02*
D03*
Y4848D02*
D03*
X-15787Y-9651D02*
D03*
Y-8931D02*
D03*
Y-6895D02*
D03*
Y-6175D02*
D03*
Y-4140D02*
D03*
Y-3420D02*
D03*
Y-1384D02*
D03*
Y-664D02*
D03*
Y1372D02*
D03*
Y2092D02*
D03*
Y4128D02*
D03*
Y4848D02*
D03*
X-16575Y-9651D02*
D03*
Y-8931D02*
D03*
Y-6895D02*
D03*
Y-6175D02*
D03*
Y-4140D02*
D03*
Y-3420D02*
D03*
Y-1384D02*
D03*
Y-664D02*
D03*
Y1372D02*
D03*
Y2092D02*
D03*
Y4128D02*
D03*
Y4848D02*
D03*
X-15000Y-8931D02*
D03*
Y-9651D02*
D03*
Y-6175D02*
D03*
Y-6895D02*
D03*
Y-3420D02*
D03*
Y-4140D02*
D03*
Y-664D02*
D03*
Y-1384D02*
D03*
Y2092D02*
D03*
Y1372D02*
D03*
Y4848D02*
D03*
Y4128D02*
D03*
X-10433Y17750D02*
D03*
Y18470D02*
D03*
X-11220Y17750D02*
D03*
Y18470D02*
D03*
X-12008Y17750D02*
D03*
Y18470D02*
D03*
X-12795Y17750D02*
D03*
Y18470D02*
D03*
D65*
X-5506Y10630D02*
D03*
X-6226D02*
D03*
X-19336Y-11968D02*
D03*
X-18616D02*
D03*
X-16468Y5709D02*
D03*
X-15748D02*
D03*
X-17649D02*
D03*
X-16929D02*
D03*
X-636Y18661D02*
D03*
X84D02*
D03*
X-636Y20906D02*
D03*
X84D02*
D03*
X-1569Y17559D02*
D03*
X-2289D02*
D03*
X-2829D02*
D03*
X-3549D02*
D03*
X-15388Y21063D02*
D03*
X-16108D02*
D03*
X-3903Y15945D02*
D03*
X-3183D02*
D03*
X-3903Y15157D02*
D03*
X-3183D02*
D03*
X-17486Y9055D02*
D03*
X-16766D02*
D03*
X-17486Y8268D02*
D03*
X-16766D02*
D03*
X-1569Y5906D02*
D03*
X-2289D02*
D03*
X-1569Y3543D02*
D03*
X-2289D02*
D03*
X-1569Y1181D02*
D03*
X-2289D02*
D03*
X-1569Y-1181D02*
D03*
X-2289D02*
D03*
X-1569Y-3543D02*
D03*
X-2289D02*
D03*
X-1569Y-5906D02*
D03*
X-2289D02*
D03*
D66*
X-3355Y-10053D02*
D03*
Y-10813D02*
D03*
X-4295D02*
D03*
X-3355Y-10433D02*
D03*
X-4295Y-10053D02*
D03*
D67*
X-276Y20273D02*
D03*
X-656Y19333D02*
D03*
X104D02*
D03*
X-17559Y-8861D02*
D03*
X-17939Y-9801D02*
D03*
X-17179D02*
D03*
X-17559Y-6105D02*
D03*
X-17939Y-7045D02*
D03*
X-17179D02*
D03*
X-17559Y-3349D02*
D03*
X-17939Y-4289D02*
D03*
X-17179D02*
D03*
X-17559Y-593D02*
D03*
X-17939Y-1533D02*
D03*
X-17179D02*
D03*
X-17559Y2163D02*
D03*
X-17939Y1223D02*
D03*
X-17179D02*
D03*
X-17559Y4919D02*
D03*
X-17939Y3979D02*
D03*
X-17179D02*
D03*
D69*
X-1575Y12008D02*
D03*
X-3150D02*
D03*
X-2362D02*
D03*
X-1575Y16732D02*
D03*
X-3150D02*
D03*
X-2362D02*
D03*
X-1575Y14370D02*
D03*
X-3150D02*
D03*
X-2362D02*
D03*
X-7323Y-10124D02*
D03*
X-10669Y-7565D02*
D03*
X-9094D02*
D03*
X-9882D02*
D03*
X-11457D02*
D03*
X-12244D02*
D03*
X-9882Y-10124D02*
D03*
X-11457D02*
D03*
X-10669D02*
D03*
X-7323Y-5399D02*
D03*
X-10669Y-2840D02*
D03*
X-9094D02*
D03*
X-9882D02*
D03*
X-11457D02*
D03*
X-12244D02*
D03*
X-9882Y-5399D02*
D03*
X-11457D02*
D03*
X-10669D02*
D03*
X-15000Y7449D02*
D03*
X-16575D02*
D03*
X-15787D02*
D03*
X-15000Y10008D02*
D03*
X-16575D02*
D03*
X-15787D02*
D03*
X-2289Y5156D02*
D03*
X-3864D02*
D03*
X-3077D02*
D03*
X-1502D02*
D03*
X-2289Y2794D02*
D03*
X-3864D02*
D03*
X-3077D02*
D03*
X-1502D02*
D03*
X-2289Y432D02*
D03*
X-3864D02*
D03*
X-3077D02*
D03*
X-1502D02*
D03*
X-2289Y-1931D02*
D03*
X-3864D02*
D03*
X-3077D02*
D03*
X-1502D02*
D03*
X-2289Y-4293D02*
D03*
X-3864D02*
D03*
X-3077D02*
D03*
X-1502D02*
D03*
X-2289Y-6655D02*
D03*
X-3864D02*
D03*
X-3077D02*
D03*
X-1502D02*
D03*
X-15000Y-10472D02*
D03*
X-16575D02*
D03*
X-15787D02*
D03*
X-15000Y-7717D02*
D03*
X-16575D02*
D03*
X-15787D02*
D03*
X-15000Y-4961D02*
D03*
X-16575D02*
D03*
X-15787D02*
D03*
X-15000Y-2205D02*
D03*
X-16575D02*
D03*
X-15787D02*
D03*
X-15000Y551D02*
D03*
X-16575D02*
D03*
X-15787D02*
D03*
X-15000Y3307D02*
D03*
X-16575D02*
D03*
X-15787D02*
D03*
D70*
X-3937Y12008D02*
D03*
Y16732D02*
D03*
Y14370D02*
D03*
X-8110Y-10124D02*
D03*
X-8307Y-7565D02*
D03*
X-12244Y-10124D02*
D03*
X-8110Y-5399D02*
D03*
X-8307Y-2840D02*
D03*
X-12244Y-5399D02*
D03*
X-17362Y7449D02*
D03*
Y10008D02*
D03*
X-4651Y5156D02*
D03*
Y2794D02*
D03*
Y432D02*
D03*
Y-1931D02*
D03*
Y-4293D02*
D03*
Y-6655D02*
D03*
X-17362Y-10472D02*
D03*
Y-7717D02*
D03*
Y-4961D02*
D03*
Y-2205D02*
D03*
Y551D02*
D03*
Y3307D02*
D03*
D71*
X-1067Y23850D02*
D03*
X-3567Y22850D02*
D03*
D72*
X-1567Y19850D02*
D03*
X-2567D02*
D03*
D73*
X-2067Y21850D02*
D03*
D74*
X-4067D02*
D03*
D75*
X-67D02*
D03*
D76*
X-13425Y14468D02*
D03*
X-12425D02*
D03*
X-11425D02*
D03*
X-10425D02*
D03*
X-9425D02*
D03*
D77*
X-8425D02*
D03*
D78*
X-7402Y10630D02*
D03*
D79*
X-8402D02*
D03*
X-2134Y10236D02*
D03*
X-3134D02*
D03*
X-2134Y9236D02*
D03*
X-3134D02*
D03*
X-2134Y8236D02*
D03*
X-3134D02*
D03*
X-2134Y7236D02*
D03*
X-3134D02*
D03*
D80*
X-19000Y7000D02*
D03*
Y8000D02*
D03*
Y9000D02*
D03*
Y10000D02*
D03*
Y11000D02*
D03*
Y12000D02*
D03*
X0Y-13000D02*
D03*
Y-12000D02*
D03*
X-17000Y-13000D02*
D03*
Y-12000D02*
D03*
X0Y15600D02*
D03*
Y8600D02*
D03*
Y9600D02*
D03*
Y10600D02*
D03*
Y11600D02*
D03*
Y12600D02*
D03*
Y13600D02*
D03*
Y14600D02*
D03*
Y7000D02*
D03*
Y0D02*
D03*
Y1000D02*
D03*
Y2000D02*
D03*
Y3000D02*
D03*
Y4000D02*
D03*
Y5000D02*
D03*
Y6000D02*
D03*
X-19000Y5000D02*
D03*
Y-2000D02*
D03*
Y-1000D02*
D03*
Y0D02*
D03*
Y1000D02*
D03*
Y2000D02*
D03*
Y3000D02*
D03*
Y4000D02*
D03*
X0Y-2000D02*
D03*
Y-9000D02*
D03*
Y-8000D02*
D03*
Y-7000D02*
D03*
Y-6000D02*
D03*
Y-5000D02*
D03*
Y-4000D02*
D03*
Y-3000D02*
D03*
X-19000Y-4000D02*
D03*
Y-11000D02*
D03*
Y-10000D02*
D03*
Y-9000D02*
D03*
Y-8000D02*
D03*
Y-7000D02*
D03*
Y-6000D02*
D03*
Y-5000D02*
D03*
X0Y16600D02*
D03*
Y17600D02*
D03*
X-8001Y-51D02*
D03*
Y-1051D02*
D03*
X-9001Y-51D02*
D03*
Y-1051D02*
D03*
X-10001Y-51D02*
D03*
Y-1051D02*
D03*
D81*
X-9000Y-12000D02*
D03*
Y-13000D02*
D03*
X-10000Y-12000D02*
D03*
Y-13000D02*
D03*
X-11000Y-12000D02*
D03*
Y-13000D02*
D03*
X-12000Y-12000D02*
D03*
Y-13000D02*
D03*
X-13000Y-12000D02*
D03*
Y-13000D02*
D03*
X-14000Y-12000D02*
D03*
Y-13000D02*
D03*
X-15000Y-12000D02*
D03*
Y-13000D02*
D03*
X-16000Y-12000D02*
D03*
Y-13000D02*
D03*
X-1000Y-12000D02*
D03*
Y-13000D02*
D03*
X-2000Y-12000D02*
D03*
Y-13000D02*
D03*
X-3000Y-12000D02*
D03*
Y-13000D02*
D03*
X-4000Y-12000D02*
D03*
Y-13000D02*
D03*
X-5000Y-12000D02*
D03*
Y-13000D02*
D03*
X-6000Y-12000D02*
D03*
Y-13000D02*
D03*
X-7000Y-12000D02*
D03*
Y-13000D02*
D03*
X-8000Y-12000D02*
D03*
Y-13000D02*
D03*
D82*
X-4134Y10236D02*
D03*
Y9236D02*
D03*
Y8236D02*
D03*
Y7236D02*
D03*
D83*
X-8839Y-8602D02*
D03*
Y-8799D02*
D03*
Y-8996D02*
D03*
Y-9193D02*
D03*
X-9587D02*
D03*
Y-8996D02*
D03*
Y-8799D02*
D03*
Y-8602D02*
D03*
X-8839Y-3878D02*
D03*
Y-4075D02*
D03*
Y-4272D02*
D03*
Y-4469D02*
D03*
X-9587D02*
D03*
Y-4272D02*
D03*
Y-4075D02*
D03*
Y-3878D02*
D03*
D84*
X-9213Y-8898D02*
D03*
Y-4173D02*
D03*
D85*
X-12916Y10195D02*
D03*
Y10695D02*
D03*
Y11195D02*
D03*
Y11695D02*
D03*
X-10076Y10195D02*
D03*
Y10695D02*
D03*
Y11195D02*
D03*
Y11695D02*
D03*
X-4766Y-9018D02*
D03*
Y-8518D02*
D03*
Y-8018D02*
D03*
Y-7518D02*
D03*
X-1926Y-9018D02*
D03*
Y-8518D02*
D03*
Y-8018D02*
D03*
Y-7518D02*
D03*
D86*
X-9646Y2953D02*
D03*
Y7283D02*
D03*
D87*
X-6506Y4134D02*
D03*
Y3346D02*
D03*
Y2559D02*
D03*
Y1772D02*
D03*
X-12785Y4134D02*
D03*
Y3346D02*
D03*
Y2559D02*
D03*
Y1772D02*
D03*
X-6506Y8465D02*
D03*
Y7677D02*
D03*
Y6890D02*
D03*
Y6102D02*
D03*
X-12785Y8465D02*
D03*
Y7677D02*
D03*
Y6890D02*
D03*
Y6102D02*
D03*
D88*
X-8179Y19491D02*
D03*
D89*
X-7779Y23311D02*
D03*
X-14039D02*
D03*
D90*
X-10039Y19291D02*
D03*
X-10472D02*
D03*
X-10906D02*
D03*
X-11339D02*
D03*
X-11772D02*
D03*
X-12205D02*
D03*
X-12638D02*
D03*
X-13071D02*
D03*
X-13504D02*
D03*
D91*
X-14059Y19571D02*
D03*
D92*
X-15445Y24177D02*
D03*
Y22681D02*
D03*
X-19283Y24177D02*
D03*
Y22681D02*
D03*
D93*
X-16114Y21913D02*
D03*
X-17114D02*
D03*
X-18114D02*
D03*
M02*
