M48
;Layer_Color=9474304
;FILE_FORMAT=2:4
INCH
;TYPE=PLATED
T1F00S00C0.0138
T2F00S00C0.0197
T3F00S00C0.0276
T4F00S00C0.0354
T5F00S00C0.0394
T6F00S00C0.0400
T7F00S00C0.0590
T8F00S00C0.0669
T9F00S00C0.0670
T10F00S00C0.1580
%
T01
X-018976Y-013346
X-018150Y-010787
X-018425Y-009567
X-017939Y-009317
X-014685Y-010945
X-012008Y-010669
X-010118Y-009606
X-006772Y-009764
X-006181Y-009764
X-003826Y-010079
X-003858Y-011260
X-000551Y-011299
X-000197Y-010079
X000709Y-010827
X-001102Y-013740
X-003740Y-014764
X-007638Y-014055
X-008386Y-009114
X-008386Y-008740
X-009213Y-008740
X-009213Y-009055
X-009607Y-008238
X-011063Y-007992
X-011811Y-008071
X-012441Y-008071
X-013504Y-007953
X-013504Y-009016
X-012598Y-006733
X-012323Y-007008
X-012087Y-006220
X-011614Y-006299
X-011142Y-005827
X-010596Y-004093
X-009213Y-004016
X-009213Y-004331
X-008386Y-004390
X-008386Y-004016
X-009607Y-003514
X-011811Y-003307
X-011339Y-002126
X-011457Y-000551
X-011102Y001575
X-009843Y001575
X-010354Y002480
X-010118Y003031
X-009567Y002874
X-009606Y003543
X-008976Y004213
X-008504Y004134
X-008031Y004173
X-007919Y005517
X-007953Y005908
X-008701Y006063
X-009094Y006024
X-009528Y006024
X-011024Y006024
X-011102Y004409
X-013701Y003268
X-014016Y002953
X-014173Y000881
X-013714Y000852
X-013583Y000472
X-013032Y001024
X-013425Y-001496
X-013937Y-005709
X-009016Y-006417
X-007490Y-007765
X-007490Y-003040
X-007205Y-000551
X-004724Y-000709
X-002205Y-000472
X-001850Y001732
X-002677Y001732
X-003504Y001063
X-004528Y003504
X-005000Y004055
X-004685Y004370
X-003465Y004606
X-000709Y003583
X-000709Y002717
X-000039Y-000906
X-003504Y-003504
X-002323Y-005157
X-004803Y-005472
X-003031Y-008543
X-001299Y-008858
X-001417Y-007795
X-014252Y005236
X-014252Y006024
X-014607Y005975
X-015000Y005984
X-015039Y005236
X-014646Y005236
X-015394Y004449
X-014843Y002638
X-014488Y002835
X-015079Y000000
X-015000Y-002874
X-015157Y-005630
X-018386Y-005354
X-018465Y-006535
X-017939Y-006628
X-018465Y-008543
X-017939Y-003845
X-018976Y-003031
X-018386Y-001654
X-017939Y-001982
X-017931Y-000283
X-018504Y-000472
X-017939Y001667
X-018465Y002480
X-018425Y004488
X-017939Y004435
X-019213Y006063
X-015354Y008307
X-015315Y011024
X-015079Y011339
X-014882Y011693
X-015000Y012520
X-015433Y014055
X-015433Y014528
X-014921Y016811
X-015000Y019252
X-015472Y021929
X-017992Y017913
X-017559Y015472
X-018425Y012559
X-017441Y011457
X-014567Y010630
X-014331Y010905
X-014016Y011181
X-013425Y009724
X-012165Y011772
X-010079Y012047
X-010157Y008976
X-009646Y007559
X-009646Y006929
X-010394Y006969
X-007874Y008937
X-004921Y011142
X-004331Y012953
X-002598Y009685
X-003543Y007756
X-002047Y006575
X-004449Y018622
X-003622Y020551
X-006654Y021024
X-006457Y017205
X-008780Y015433
X-010551Y015394
X-011968Y016811
X-011772Y019843
X-012598Y019803
X-010906Y019882
X-010354Y019921
X-011339Y020512
X-011102Y022126
X-008425Y024213
X-004449Y024291
X-018189Y023110
T02
X-010596Y-008817
X-012756Y005118
X-015118Y-008504
X-014646Y017441
T03
X-017362Y-010472
X-016575Y-010472
X-015787Y-010472
X-015000Y-010472
X-012244Y-010124
X-011457Y-010124
X-010669Y-010124
X-009882Y-010124
X-008110Y-010124
X-007323Y-010124
X-008307Y-007565
X-009094Y-007565
X-009882Y-007565
X-010669Y-007565
X-011457Y-007565
X-012244Y-007565
X-012244Y-005399
X-011457Y-005399
X-010669Y-005399
X-009882Y-005399
X-008110Y-005399
X-007323Y-005399
X-008307Y-002840
X-009094Y-002840
X-009882Y-002840
X-010669Y-002840
X-011457Y-002840
X-012244Y-002840
X-004651Y-001931
X-003864Y-001931
X-003077Y-001931
X-002289Y-001931
X-001502Y-001931
X-001502Y-004293
X-002289Y-004293
X-003077Y-004293
X-003864Y-004293
X-004651Y-004293
X-004651Y-006655
X-003864Y-006655
X-003077Y-006655
X-002289Y-006655
X-001502Y-006655
X-001502Y000432
X-002289Y000432
X-003077Y000432
X-003864Y000432
X-004651Y000432
X-004651Y002794
X-003864Y002794
X-003077Y002794
X-002289Y002794
X-001502Y002794
X-001502Y005156
X-002289Y005156
X-003077Y005156
X-003864Y005156
X-004651Y005156
X-015000Y003307
X-015787Y003307
X-016575Y003307
X-017362Y003307
X-017362Y000551
X-016575Y000551
X-015787Y000551
X-015000Y000551
X-015000Y-002205
X-015787Y-002205
X-016575Y-002205
X-017362Y-002205
X-017362Y-004961
X-016575Y-004961
X-015787Y-004961
X-015000Y-004961
X-015000Y-007717
X-015787Y-007717
X-016575Y-007717
X-017362Y-007717
X-017362Y007449
X-016575Y007449
X-015787Y007449
X-015000Y007449
X-015000Y010008
X-015787Y010008
X-016575Y010008
X-017362Y010008
X-003937Y012008
X-003150Y012008
X-002362Y012008
X-001575Y012008
X-001575Y014370
X-002362Y014370
X-003150Y014370
X-003937Y014370
X-003937Y016732
X-003150Y016732
X-002362Y016732
X-001575Y016732
T04
X-008402Y010630
X-007402Y010630
X-004134Y010236
X-003134Y010236
X-002134Y010236
X-002134Y009236
X-003134Y009236
X-004134Y009236
X-004134Y008236
X-003134Y008236
X-002134Y008236
X-002134Y007236
X-003134Y007236
X-004134Y007236
T05
X-013309Y-006457
X-013425Y-003504
X-011968Y004129
X-007205Y004134
X-007205Y000827
X-005787Y009173
X-012323Y008858
X-012874Y023425
X-009724Y023425
T06
X-017000Y-013000
X-017000Y-012000
X-016000Y-012000
X-015000Y-012000
X-015000Y-013000
X-016000Y-013000
X-019000Y-011000
X-019000Y-010000
X-014000Y-012000
X-013000Y-012000
X-012000Y-012000
X-011000Y-012000
X-010000Y-012000
X-009000Y-012000
X-009000Y-013000
X-010000Y-013000
X-011000Y-013000
X-012000Y-013000
X-013000Y-013000
X-014000Y-013000
X-008000Y-013000
X-007000Y-013000
X-006000Y-013000
X-005000Y-013000
X-004000Y-013000
X-003000Y-013000
X-002000Y-013000
X-001000Y-013000
X000000Y-013000
X000000Y-012000
X-001000Y-012000
X-002000Y-012000
X-003000Y-012000
X-004000Y-012000
X-005000Y-012000
X-006000Y-012000
X-007000Y-012000
X-008000Y-012000
X-008001Y-001051
X-008001Y-000051
X-009001Y-000051
X-009001Y-001051
X-010001Y-001051
X-010001Y-000051
X000000Y000000
X000000Y001000
X000000Y002000
X000000Y003000
X000000Y004000
X000000Y005000
X000000Y006000
X000000Y-002000
X000000Y-003000
X000000Y-004000
X000000Y-005000
X000000Y-006000
X000000Y-007000
X000000Y-008000
X000000Y-009000
X-019000Y-009000
X-019000Y-008000
X-019000Y-007000
X-019000Y-006000
X-019000Y-005000
X-019000Y-004000
X-019000Y-002000
X-019000Y-001000
X-019000Y000000
X-019000Y001000
X-019000Y002000
X-019000Y003000
X-019000Y004000
X-019000Y005000
X-019000Y007000
X-019000Y008000
X-019000Y009000
X-019000Y010000
X-019000Y011000
X-019000Y012000
X-013425Y014468
X-012425Y014468
X-011425Y014468
X-010425Y014468
X-009425Y014468
X-008425Y014468
X000000Y014600
X000000Y015600
X000000Y016600
X000000Y017600
X-001567Y019850
X-002567Y019850
X000000Y013600
X000000Y012600
X000000Y011600
X000000Y010600
X000000Y009600
X000000Y008600
X000000Y007000
T07
X-003567Y022850
X-001067Y023850
T08
X-000067Y021850
T09
X-004067Y021850
T10
X-002067Y021850
M30
